<svg width="16" height="16" viewBox="0 0 16 16" fill="none" xmlns="http://www.w3.org/2000/svg">
<path fill-rule="evenodd" clip-rule="evenodd" d="M5.33333 1.33398C4.96514 1.33398 4.66667 1.63246 4.66667 2.00065V2.66732H4C2.89543 2.66732 2 3.56275 2 4.66732V6.00065V12.6673C2 13.7719 2.89543 14.6673 4 14.6673H12C13.1046 14.6673 14 13.7719 14 12.6673V6.00065V4.66732C14 3.56275 13.1046 2.66732 12 2.66732H11.3333V2.00065C11.3333 1.63246 11.0349 1.33398 10.6667 1.33398C10.2985 1.33398 10 1.63246 10 2.00065V2.66732H6V2.00065C6 1.63246 5.70152 1.33398 5.33333 1.33398ZM10.6667 4.00065H5.33333H4C3.63181 4.00065 3.33333 4.29913 3.33333 4.66732V5.33398H12.6667V4.66732C12.6667 4.29913 12.3682 4.00065 12 4.00065H10.6667ZM3.33333 12.6673V6.66732H12.6667V12.6673C12.6667 13.0355 12.3682 13.334 12 13.334H4C3.63181 13.334 3.33333 13.0355 3.33333 12.6673ZM4.66667 8.66732C4.66667 8.29913 4.96514 8.00065 5.33333 8.00065H6.66667C7.03486 8.00065 7.33333 8.29913 7.33333 8.66732V10.0007C7.33333 10.3688 7.03486 10.6673 6.66667 10.6673H5.33333C4.96514 10.6673 4.66667 10.3688 4.66667 10.0007V8.66732Z" fill="#0D0D0D"/>
</svg>
